<?xml version="1.0" encoding="utf-8"?>
<!-- Generator: Adobe Illustrator 26.0.0, SVG Export Plug-In . SVG Version: 6.00 Build 0)  -->
<svg version="1.1" id="Layer_1" xmlns="http://www.w3.org/2000/svg" xmlns:xlink="http://www.w3.org/1999/xlink" x="0px" y="0px"
	 viewBox="0 0 1087.95 1345.8" style="enable-background:new 0 0 1087.95 1345.8;" xml:space="preserve">
<style type="text/css">
	.st0{fill:#4AA8AD;}
	.st1{fill:#FFFFFF;}
	.st2{fill:#DEA558;}
</style>
<g>
	<g>
		<g>
			<path class="st0" d="M75.07,0H0c40.65,318.66,81.04,550,102.87,832.5h28.68C107.57,516.82,94.83,242.54,75.07,0z"/>
			<path class="st1" d="M121.47,0c4.49,219.5,23.3,494.01,27.8,832.5h46.4c-3.99-354.9-7.15-588.83,0.9-832.5H121.47z"/>
			<path class="st0" d="M242.95,0c-5.36,203.82-6.63,478.08-18.6,832.5h75.07C311.95,478.94,312.01,204.65,318.02,0H242.95z"/>
			<path class="st2" d="M421.77,0c-23.2,247.04-42.72,463.95-75.96,832.5h167.86C504.06,402.53,499.98,228.45,496.84,0H421.77z"/>
			<path class="st0" d="M543.24,0c0.61,250.85-14.24,525.24-13.63,832.5h42.34c-0.15-287.09-0.31-561.27-0.46-832.5H543.24z"/>
			<path class="st1" d="M636.04,0c-8.43,292.44-21.08,524.04-47.29,832.5h60.74C649.33,545.44,664.87,271.16,664.71,0H636.04z"/>
			<path class="st1" d="M710.21,832.5h346.66C910.56,453.27,900.22,409.95,814.86,0H693.39C704.01,9.35,727.45,592.14,710.21,832.5z
				"/>
		</g>
	</g>
</g>
<g>
	<path class="st1" d="M1064.99,1275.15"/>
</g>
<g>
	<g>
		<path class="st1" d="M1082.8,1200.95c-3.33,3.23-7.33,4.84-12,4.84c-4.82,0-8.88-1.65-12.19-4.95c-3.3-3.3-4.95-7.36-4.95-12.19
			c0-5.01,1.78-9.17,5.35-12.49c3.35-3.1,7.28-4.65,11.79-4.65c4.73,0,8.77,1.67,12.12,5.02c3.35,3.35,5.02,7.39,5.02,12.12
			C1087.95,1193.52,1086.23,1197.62,1082.8,1200.95z M1060.74,1178.72c-2.73,2.79-4.09,6.1-4.09,9.93c0,3.97,1.39,7.34,4.17,10.12
			c2.76,2.77,6.09,4.16,9.99,4.16c3.89,0,7.22-1.4,9.98-4.19c2.76-2.81,4.14-6.17,4.14-10.09c0-3.81-1.38-7.12-4.11-9.93
			c-2.78-2.85-6.11-4.28-10.01-4.28C1066.87,1174.45,1063.52,1175.87,1060.74,1178.72z M1063.3,1198.19v-19c1.18,0,2.94,0,5.29,0.01
			c2.35,0.01,3.65,0.02,3.92,0.03c1.5,0.11,2.75,0.44,3.75,0.98c1.69,0.93,2.53,2.44,2.53,4.53c0,1.6-0.45,2.75-1.34,3.46
			c-0.89,0.71-1.99,1.14-3.3,1.28c1.2,0.25,2.1,0.61,2.7,1.1c1.12,0.9,1.67,2.33,1.67,4.26v1.7c0,0.19,0.01,0.37,0.04,0.56
			s0.07,0.37,0.14,0.56l0.17,0.53h-4.74c-0.15-0.6-0.26-1.48-0.31-2.63c-0.05-1.15-0.16-1.92-0.32-2.33
			c-0.25-0.67-0.71-1.13-1.4-1.4c-0.37-0.16-0.94-0.26-1.69-0.3l-1.1-0.07h-1.04v6.72H1063.3z M1072.37,1182.93
			c-0.68-0.26-1.64-0.4-2.88-0.4h-1.21v5.51h1.93c1.16,0,2.07-0.23,2.72-0.7s0.98-1.22,0.98-2.26S1073.39,1183.33,1072.37,1182.93z"
			/>
	</g>
	<path class="st1" d="M799.73,1001.98c11.18-0.2,18.11-8.72,18.55-17.93c6.05-1.49,12.33,0.74,15.7,3.6
		c5.26,4.47,5.09,11.1,3.42,16.57c-4.91,16.13-13.07,40.25-13.07,40.25h26.04l-26.26,85.65h42.64l39.04-122.25h-28.85
		c-0.26-3.33,0.37-10.75-2.13-18.38c-4.6-14.06-11.97-24.46-22.75-31.17c-7.76-4.83-16.57-9.86-38.8-9.34l-21.83,0.53l-9.73,52.35
		C790.46,1001.88,792.24,1002.11,799.73,1001.98z"/>
	<path class="st1" d="M921.4,1003.68c4.26,3.44,8.67,4.59,13.16,4.98c-6.3,11.98-8.85,25.19-8.78,35.88l0.09,9.91
		c8.08,1.29,14.59,2.32,19.85,3.15c-13.87,3.76-19.92,12.07-19.76,30.41l-0.06,42.09h36.53c0,0-0.26-15.41-0.1-32.38
		c0.1-10.3,7.81-17.14,13.07-18.98c5.2-1.82,9.21-1.67,9.38-1.67v-22.52c-6.01,0.01-11.45,0.09-16.46,0.28l0.04-8.93
		c0-17.34,6.53-27.25,21.48-27.25c17.94,0,21.41,14.41,21.41,27.25v84.2h42.57v-82.42c0-20.62-3.02-72.27-62.99-71.93
		c-13.81,0.08-24.99,3.43-33.94,8.79c-3.37-3.93-4.65-9.55-4.71-18.48l0.07-16.25h-42.63v17.41
		C909.28,991.72,913.24,997.11,921.4,1003.68z"/>
	<path class="st1" d="M375.75,1130.11h42.8c0,0,0.35-53.46,0.35-55.71v-56.31c0-35.45-28.74-64.19-64.19-64.19l0,0
		c-35.45,0-64.19,28.74-64.19,64.19v69.14h42.79l-0.35-70.84c0-11.82,9.58-21.4,21.4-21.4c11.82,0,21.4,9.58,21.4,21.4V1130.11z"/>
	<path class="st1" d="M680.44,1087.22l-0.35-70.93c0-11.82,9.58-21.4,21.4-21.4s21.4,9.58,21.4,21.4v113.81h42.8
		c0,0,0.35-53.55,0.35-55.8V1018c0-35.45-28.74-64.19-64.19-64.19h0c-35.45,0-64.19,28.74-64.19,64.19v56.31
		c0,2.25,0.12,10.72,0.35,12.91H680.44z"/>
	<path class="st1" d="M121.23,1077.08h79.91v-32.09h-45.25v-53.17h44.91v42.91h42.72v-69.42c0-3.35-2.72-6.07-6.07-6.07H124.62
		c-2.79,0-5.05,2.26-5.05,5.05v111.13C119.57,1076.34,120.31,1077.08,121.23,1077.08z"/>
	<polygon class="st1" points="274.01,1130.11 274.01,1044.99 211.14,1044.99 211.14,1077.08 231.1,1077.08 231.1,1130.11 	"/>
	<path class="st1" d="M316.46,1200.32c-6.57,0-12.84,1.25-18.63,3.71c-2.7,1.15-5.33,2.57-7.87,4.27v-36.71h-34.28v138.53h34.28
		v-5.15c2.66,1.77,5.34,3.21,8.02,4.3c5.47,2.24,11.45,3.37,17.76,3.37c14.12,0,26.46-5.45,36.69-16.18
		c10.18-10.66,15.34-24.05,15.34-39.8c0-16.27-5-29.84-14.85-40.36C342.97,1205.69,330.7,1200.32,316.46,1200.32z M329.22,1276.11
		c-4.91,5.15-10.78,7.66-17.96,7.66c-7.42,0-13.4-2.46-18.27-7.53c-4.83-5.02-7.27-11.72-7.27-19.93c0-8.02,2.44-14.59,7.26-19.53
		c4.88-4.98,10.86-7.4,18.29-7.4c7.36,0,13.28,2.46,18.09,7.52c4.78,5.02,7.19,11.57,7.19,19.49
		C336.54,1264.36,334.08,1270.99,329.22,1276.11z"/>
	<path class="st1" d="M450.55,1208.17c-2.5-1.67-5.09-3.08-7.76-4.21c-5.79-2.46-12.05-3.71-18.61-3.71
		c-14.24,0-26.5,5.38-36.43,15.98c-9.85,10.52-14.84,24.09-14.84,40.36c0,15.76,5.16,29.15,15.32,39.8
		c10.22,10.74,22.55,16.18,36.66,16.18c6.31,0,12.27-1.14,17.7-3.38c2.65-1.08,5.31-2.52,7.96-4.28v5.15h34.46v-107.29h-34.46
		V1208.17z M447.54,1276.15c-4.86,5.07-10.81,7.53-18.21,7.53c-7.15,0-13-2.5-17.88-7.66c-4.85-5.11-7.31-11.75-7.31-19.72
		c0-7.92,2.41-14.47,7.17-19.49c4.8-5.06,10.66-7.52,17.93-7.52c7.46,0,13.46,2.42,18.31,7.4c4.81,4.93,7.25,11.5,7.25,19.53
		C454.79,1264.44,452.36,1271.14,447.54,1276.15z"/>
	<polygon class="st1" points="547.38,1256.97 524.64,1202.76 488.86,1202.76 528.44,1297.85 505.75,1345.8 544.53,1345.8 
		610.99,1202.76 572.48,1202.76 	"/>
	<path class="st1" d="M712.29,1233.35c2.72-2.6,4.89-5.35,6.46-8.21c2.55-4.67,3.85-9.9,3.85-15.54c0-8.62-2.81-16.24-8.37-22.63
		c-5.48-6.3-12.89-10.65-21.97-12.92c-6.18-1.63-15.8-2.45-28.61-2.45h-26.35v138.38h43.15c11.72,0,21.17-1.65,28.09-4.91
		c7.03-3.33,12.84-8.4,17.27-15.06c4.46-6.7,6.72-14.21,6.72-22.33c0-8.43-2.21-15.9-6.56-22.18
		C722.75,1240.86,718.16,1236.79,712.29,1233.35z M669.85,1221.69v-16.96v-3.45h5.02c5.51,0,9.62,1.06,12.22,3.16
		c2.55,2.08,3.79,4.82,3.79,8.4c0,3.87-1.31,6.84-4.02,9.06c-2.74,2.25-7.12,3.38-13.01,3.38h-3.99V1221.69z M695.5,1276.72
		c-3.45,2.36-10.45,3.56-20.82,3.56h-4.82v-29.87h3.7c9.8,0,16.85,1.51,20.92,4.49c4,2.93,5.94,6.82,5.94,11.9
		C700.42,1271.2,698.81,1274.45,695.5,1276.72z"/>
	<path class="st1" d="M811.2,1210.61c-2.44-1.63-4.97-3-7.58-4.11c-5.65-2.41-11.77-3.63-18.18-3.63
		c-13.91,0-25.88,5.25-35.57,15.61c-9.62,10.27-14.49,23.53-14.49,39.41c0,15.39,5.04,28.47,14.97,38.87
		c9.98,10.49,22.03,15.81,35.81,15.81c6.16,0,11.98-1.11,17.28-3.3c2.59-1.06,5.19-2.46,7.77-4.18v5.03h33.65v-104.78H811.2V1210.61
		z M808.26,1277.01c-4.75,4.95-10.56,7.36-17.78,7.36c-6.98,0-12.7-2.44-17.46-7.48c-4.74-4.99-7.14-11.47-7.14-19.26
		c0-7.73,2.35-14.14,7-19.04c4.68-4.95,10.41-7.35,17.51-7.35c7.29,0,13.14,2.36,17.88,7.23c4.7,4.82,7.08,11.24,7.08,19.07
		C815.34,1265.56,812.96,1272.11,808.26,1277.01z"/>
	<path class="st1" d="M911.09,1202.73c-5.26,0-10.46,1.02-15.46,3.03c-2.67,1.06-5.53,2.59-8.52,4.55v-5.12h-33.65v104.78h33.65
		v-42.96c0-11.86,0.51-16.5,0.93-18.29c1.15-4.79,3.14-8.53,5.95-11.1c2.67-2.47,5.67-3.62,9.45-3.62c2.75,0,4.94,0.64,6.68,1.97
		c1.72,1.31,2.99,3.36,3.74,6.06c0.63,2.29,1.37,7.88,1.37,21.47v46.47h33.39v-67.74c0-12.22-3.3-21.72-9.82-28.22
		C931.24,1206.52,921.92,1202.73,911.09,1202.73z"/>
	<polygon class="st1" points="1006.88,1255.56 1053.44,1205.19 1009.65,1205.19 989.53,1227.02 989.53,1171.59 980.26,1171.59 
		980.18,1171.59 955.46,1171.59 955.46,1309.97 980.18,1309.97 980.26,1309.97 989.53,1309.97 989.53,1282.98 1015.1,1309.97 
		1058.72,1309.97 	"/>
	<polygon class="st1" points="159.65,1168.28 103.44,1309.97 141.05,1309.97 175.36,1222.82 209.22,1309.97 247.29,1309.97 
		192.07,1168.28 	"/>
	<polygon class="st1" points="170.3,1261.93 150.05,1309.97 162.97,1309.97 175.11,1278.57 187.54,1309.97 200.18,1309.97 
		179.59,1261.93 	"/>
	<path class="st1" d="M580.44,1113.64c11.87-13.09,14.53-33.96,15.26-51.69l-0.18-7.24h-39.99l0.18,14
		c0,12.31-0.26,16.41-4.91,22.13c-6.14,7.54-14.38,6.31-14.47,6.31c-11.24,0.14-26.99-6.56-42.82-36.92
		c7.3,0.8,16.72,0.46,26.6-3.49c15.45-6.18,24.34-17.18,28.93-26.05c6.68-12.89,8.81-29.61,3.44-44.27
		c-1.96-5.36-4.39-9.95-8.71-15.71c-9.07-12.09-24.55-21.88-44.8-21.53c-18.16,0.31-32.92,6.96-45.52,23.81
		c-9.67,12.93-15.32,31.7-8.66,61.09c7.05,31.11,29.57,62.78,29.77,63.08h-39.69l-0.31,32.95h105.19
		C555.43,1130.28,569.43,1125.8,580.44,1113.64z M480.96,991.67c7.58-18.03,21.5-15.87,25.54-14.65
		c16.81,5.08,18.71,33.2,2.68,51.49c-8.23,9.4-17.51,12.29-24.15,13.01c-0.71-1.77-1.41-3.58-2.12-5.46
		C477.05,1020.42,476.01,1003.43,480.96,991.67z"/>
</g>
</svg>
