<?xml version="1.0" encoding="utf-8"?>
<!-- Generator: Adobe Illustrator 25.4.1, SVG Export Plug-In . SVG Version: 6.00 Build 0)  -->
<svg version="1.1" id="PHOTO_FRAME_copy" xmlns="http://www.w3.org/2000/svg" xmlns:xlink="http://www.w3.org/1999/xlink" x="0px"
	 y="0px" viewBox="0 0 236.8 60.3" style="enable-background:new 0 0 236.8 60.3;" xml:space="preserve">
<style type="text/css">
	.st0{fill:#49A8AD;}
	.st1{fill:#FFFFFF;}
	.st2{fill:#DFA658;}
</style>
<g>
	<g>
		<g>
			<path class="st0" d="M5.4,0.2H0c2.9,23,5.8,39.6,7.4,60h2.1C7.8,37.4,6.8,17.6,5.4,0.2z"/>
			<path class="st1" d="M8.8,0.2c0.3,15.8,1.7,35.6,2,60h3.3c-0.3-25.6-0.5-42.4,0.1-60C14.2,0.2,8.8,0.2,8.8,0.2z"/>
			<path class="st0" d="M17.5,0.2c-0.4,14.7-0.5,34.5-1.3,60h5.4c0.9-25.5,0.9-45.2,1.3-60C22.9,0.2,17.5,0.2,17.5,0.2z"/>
			<path class="st2" d="M30.4,0.2c-1.7,17.8-3.1,33.4-5.5,60H37c-0.7-31-1-43.5-1.2-60C35.8,0.2,30.4,0.2,30.4,0.2z"/>
			<path class="st0" d="M39.2,0.2c0,18.1-1,37.9-1,60h3c0-20.7,0-40.5,0-60C41.2,0.2,39.2,0.2,39.2,0.2z"/>
			<path class="st1" d="M45.8,0.2c-0.6,21.1-1.5,37.8-3.4,60h4.4c0-20.7,1.1-40.5,1.1-60C47.9,0.2,45.8,0.2,45.8,0.2z"/>
			<path class="st1" d="M51.2,60.2h25c-10.6-27.3-11.3-30.5-17.4-60H50C50.7,0.8,52.4,42.8,51.2,60.2z"/>
		</g>
	</g>
	<g>
		<path class="st1" d="M236.1,38c-0.5,0.5-1.1,0.7-1.8,0.7c-0.7,0-1.3-0.2-1.8-0.7c-0.5-0.5-0.7-1.1-0.7-1.8c0-0.7,0.3-1.3,0.8-1.8
			c0.5-0.5,1.1-0.7,1.7-0.7c0.7,0,1.3,0.2,1.8,0.7s0.7,1.1,0.7,1.8C236.9,36.9,236.6,37.5,236.1,38z M232.9,34.7
			c-0.4,0.4-0.6,0.9-0.6,1.5c0,0.6,0.2,1.1,0.6,1.5s0.9,0.6,1.5,0.6c0.6,0,1.1-0.2,1.5-0.6c0.4-0.4,0.6-0.9,0.6-1.5
			c0-0.6-0.2-1-0.6-1.5c-0.4-0.4-0.9-0.6-1.5-0.6C233.8,34.1,233.2,34.3,232.9,34.7z M233.2,37.5v-2.8c0.2,0,0.4,0,0.8,0
			c0.4,0,0.5,0,0.6,0c0.2,0,0.4,0.1,0.6,0.2c0.2,0.1,0.4,0.4,0.4,0.7c0,0.2-0.1,0.4-0.2,0.5c-0.1,0.1-0.3,0.2-0.5,0.2
			c0.2,0,0.3,0.1,0.4,0.2c0.2,0.1,0.2,0.3,0.2,0.6v0.2c0,0,0,0.1,0,0.1c0,0,0,0.1,0,0.1l0,0.1h-0.7c0-0.1,0-0.2,0-0.4s0-0.3,0-0.3
			c0-0.1-0.1-0.2-0.2-0.2c-0.1,0-0.1,0-0.2,0l-0.2,0H234v1L233.2,37.5L233.2,37.5z M234.6,35.3c-0.1,0-0.2-0.1-0.4-0.1H234v0.8h0.3
			c0.2,0,0.3,0,0.4-0.1c0.1-0.1,0.1-0.2,0.1-0.3C234.8,35.5,234.7,35.4,234.6,35.3z"/>
		<path class="st1" d="M118.2,38.2c-1,0-2,0.2-2.8,0.6c-0.4,0.2-0.8,0.4-1.2,0.7v-5.6h-5.2V55h5.2v-0.8c0.4,0.3,0.8,0.5,1.2,0.7
			c0.8,0.3,1.8,0.5,2.7,0.5c2.2,0,4.1-0.8,5.6-2.5s2.3-3.7,2.3-6.1c0-2.5-0.8-4.6-2.3-6.2C122.3,39,120.4,38.2,118.2,38.2z
			 M120.2,49.8c-0.8,0.8-1.7,1.2-2.8,1.2c-1.1,0-2.1-0.4-2.8-1.2c-0.7-0.8-1.1-1.8-1.1-3c0-1.2,0.4-2.2,1.1-3
			c0.8-0.8,1.7-1.1,2.8-1.1c1.1,0,2,0.4,2.8,1.2c0.7,0.8,1.1,1.8,1.1,3C121.3,48,120.9,49,120.2,49.8z"/>
		<path class="st1" d="M138.4,39.4c-0.4-0.2-0.8-0.5-1.2-0.7c-0.9-0.4-1.9-0.6-2.9-0.6c-2.2,0-4.1,0.8-5.6,2.4
			c-1.5,1.6-2.3,3.7-2.3,6.2c0,2.4,0.8,4.5,2.3,6.1c1.6,1.6,3.4,2.5,5.6,2.5c1,0,1.9-0.2,2.7-0.5c0.4-0.2,0.8-0.4,1.2-0.7V55h5.3
			V38.6h-5.3L138.4,39.4L138.4,39.4z M138,49.8c-0.7,0.8-1.6,1.2-2.8,1.2c-1.1,0-2-0.4-2.7-1.2c-0.7-0.8-1.1-1.8-1.1-3
			c0-1.2,0.4-2.2,1.1-3c0.7-0.8,1.6-1.2,2.7-1.2c1.1,0,2.1,0.4,2.8,1.1c0.7,0.8,1.1,1.8,1.1,3C139.1,48,138.7,49,138,49.8z"/>
		<polygon class="st1" points="153.4,46.7 149.9,38.4 144.4,38.4 150.5,53 147,60.3 152.9,60.3 163.1,38.4 157.2,38.4 		"/>
		<path class="st1" d="M177.8,43.3c0.4-0.4,0.8-0.8,1-1.3c0.4-0.7,0.6-1.5,0.6-2.4c0-1.3-0.4-2.5-1.3-3.5c-0.9-1-2-1.7-3.4-2
			c-1-0.2-2.4-0.4-4.4-0.4h-4.1v21.5h6.7c1.8,0,3.3-0.2,4.4-0.8c1.1-0.5,2-1.3,2.7-2.3c0.7-1,1-2.2,1-3.5c0-1.3-0.3-2.5-1-3.4
			C179.4,44.5,178.7,43.9,177.8,43.3z M171.2,41.5v-2.6v-0.5h0.8c0.9,0,1.5,0.2,1.9,0.5c0.4,0.3,0.6,0.8,0.6,1.3
			c0,0.6-0.2,1.1-0.6,1.4c-0.4,0.3-1.1,0.5-2,0.5h-0.6L171.2,41.5L171.2,41.5z M171.2,50.6V46h0.6c1.5,0,2.6,0.2,3.2,0.7
			c0.6,0.5,0.9,1,0.9,1.8c0,0.7-0.2,1.2-0.8,1.5c-0.5,0.4-1.6,0.5-3.2,0.5L171.2,50.6L171.2,50.6z"/>
		<path class="st1" d="M193.1,39.7c-0.4-0.2-0.8-0.5-1.2-0.6c-0.9-0.4-1.8-0.6-2.8-0.6c-2.2,0-4,0.8-5.5,2.4
			c-1.5,1.6-2.2,3.7-2.2,6.1c0,2.4,0.8,4.4,2.3,6c1.6,1.6,3.4,2.5,5.6,2.5c0.9,0,1.9-0.2,2.7-0.5c0.4-0.2,0.8-0.4,1.2-0.7v0.8h5.2
			V38.9h-5.2V39.7z M192.7,50c-0.7,0.8-1.6,1.1-2.8,1.1c-1.1,0-2-0.4-2.7-1.2c-0.7-0.8-1.1-1.8-1.1-3c0-1.2,0.4-2.2,1.1-3
			c0.7-0.8,1.6-1.1,2.7-1.1c1.1,0,2,0.4,2.8,1.1c0.7,0.8,1.1,1.8,1.1,3C193.8,48.2,193.4,49.2,192.7,50z"/>
		<path class="st1" d="M208.7,38.4c-0.8,0-1.6,0.2-2.4,0.5c-0.4,0.2-0.9,0.4-1.3,0.7v-0.8h-5.2V55h5.2v-6.7c0-1.8,0.1-2.6,0.1-2.8
			c0.2-0.7,0.5-1.3,0.9-1.7c0.4-0.4,0.9-0.6,1.5-0.6c0.4,0,0.8,0.1,1,0.3c0.3,0.2,0.5,0.5,0.6,0.9c0.1,0.4,0.2,1.2,0.2,3.3V55h5.2
			V44.5c0-1.9-0.5-3.4-1.5-4.4C211.8,39,210.4,38.4,208.7,38.4z"/>
		<polygon class="st1" points="223.8,46.6 231.1,38.8 224.3,38.8 221.1,42.2 221.1,33.5 219.7,33.5 219.7,33.5 215.9,33.5 215.9,55 
			219.7,55 219.7,55 221.1,55 221.1,50.8 225.1,55 231.9,55 		"/>
		<g>
			<polygon class="st1" points="94.8,33.3 86.2,55 91.9,55 97.2,41.7 102.4,55 108.2,55 99.7,33.3 			"/>
			<polygon class="st2" points="97.1,50.2 99,55 101,55 97.8,47.7 96.4,47.7 93.3,55 95.3,55 			"/>
		</g>
	</g>
	<g>
		<path class="st1" d="M203.6,6.3c-0.7-2.2-1.9-3.8-3.5-4.8c-1.2-0.8-2.6-1.5-6-1.5l-3.4,0.1l-1.5,8.1c1.4,0,1.6,0,2.8,0
			c1.7,0,2.8-1.4,2.9-2.8c0.9-0.2,1.9,0.1,2.4,0.6c0.8,0.7,0.8,1.7,0.5,2.6c-0.8,2.5-2,6.3-2,6.3h4.1l-4.1,13.3h6.6l6.1-19h-4.5
			C203.9,8.6,203.9,7.5,203.6,6.3z"/>
		<path class="st1" d="M221.6,4.2c-2.1,0-3.9,0.5-5.3,1.4c-0.5-0.6-0.7-1.5-0.7-2.9l0-2.5H209v2.7c-0.1,3.8,0.6,4.6,1.8,5.7
			c0.7,0.5,1.4,0.7,2.1,0.8c-1,1.9-1.4,3.9-1.4,5.6l0,1.5c1.3,0.2,2.3,0.4,3.1,0.5c-2.2,0.6-3.1,1.9-3.1,4.7l0,6.5h5.7
			c0,0,0-2.4,0-5c0-1.6,1.2-2.7,2-3c0.8-0.3,1.4-0.3,1.5-0.3v-3.5c-0.9,0-1.8,0-2.6,0l0-1.4c0-2.7,1-4.2,3.3-4.2
			c2.8,0,3.3,2.2,3.3,4.2v13.1h6.6V15.4C231.4,12.1,230.9,4.1,221.6,4.2z"/>
		<path class="st1" d="M122.7,0.8L122.7,0.8c-5.5,0-10,4.5-10,10v10.8h6.7l-0.1-11c0-2.1,1.9-3.7,4-3.3c1.6,0.3,2.6,1.8,2.6,3.4
			v17.5h6.6c0,0,0.1-8.3,0.1-8.7v-8.8C132.7,5.2,128.2,0.8,122.7,0.8z"/>
		<path class="st1" d="M176.7,0.8L176.7,0.8c-5.5,0-10,4.5-10,10v8.8c0,0.4,0,1.7,0.1,2h6.6l-0.1-11c0-2.1,1.9-3.7,4-3.3
			c1.6,0.3,2.6,1.8,2.6,3.4v17.6h6.6c0,0,0.1-8.3,0.1-8.7v-8.8C186.6,5.2,182.2,0.8,176.7,0.8z"/>
		<path class="st1" d="M91.8,6.7h7v6.7h6.6V2.5c0-0.5-0.4-0.9-0.9-0.9H87c-0.4,0-0.8,0.4-0.8,0.8v17.3c0,0.1,0.1,0.3,0.3,0.3h12.4
			v-5h-7V6.7z"/>
		<polygon class="st1" points="100.4,19.9 103.5,19.9 103.5,28.2 110.2,28.2 110.2,14.9 100.4,14.9 		"/>
		<path class="st1" d="M153.9,16.4l0,2.2c0,1.9,0,2.5-0.8,3.4c-0.9,1.2-2.2,1-2.2,1c-1.8,0-4.2-1-6.7-5.7c1.1,0.1,2.6,0.1,4.1-0.5
			c2.4-1,3.8-2.7,4.5-4.1c1-2,1.4-4.6,0.5-6.9c-0.3-0.8-0.7-1.6-1.4-2.4c-1.4-1.9-3.8-3.4-7-3.3c-2.8,0-5.1,1.1-7.1,3.7
			c-1.5,2-2.4,4.9-1.4,9.5c1.1,4.8,4.6,9.8,4.6,9.8h-6.2l-0.1,5.1h16.4c2.4,0,4.6-0.7,6.3-2.6c1.8-2,2.3-5.3,2.4-8l0-1.1L153.9,16.4
			L153.9,16.4z M142.3,6.6c1.2-2.8,3.3-2.5,4-2.3c2.6,0.8,2.9,5.2,0.4,8c-1.3,1.5-2.7,1.9-3.8,2c-0.1-0.3-0.2-0.6-0.3-0.9
			C141.7,11.1,141.6,8.5,142.3,6.6z"/>
	</g>
</g>
</svg>
