<?xml version="1.0" encoding="utf-8"?>
<!-- Generator: Adobe Illustrator 26.0.0, SVG Export Plug-In . SVG Version: 6.00 Build 0)  -->
<svg version="1.1" id="Layer_1" xmlns="http://www.w3.org/2000/svg" xmlns:xlink="http://www.w3.org/1999/xlink" x="0px" y="0px"
	 viewBox="0 0 72 56.7" style="enable-background:new 0 0 72 56.7;" xml:space="preserve">
<style type="text/css">
	.st0{fill:#49A8AD;}
	.st1{fill:#FFFFFF;}
	.st2{fill:#DFA658;}
</style>
<g id="Layer_3">
	<path class="st0" d="M5.1,0H0c2.8,21.7,5.5,37.5,7,56.7h2C7.3,35.2,6.5,16.5,5.1,0"/>
	<path class="st1" d="M8.3,0c0.3,14.9,1.6,33.6,1.9,56.7h3.2c-0.3-24.2-0.6-40.1,0-56.7H8.3z"/>
	<path class="st0" d="M16.5,0c-0.4,13.9-0.5,32.6-1.3,56.7h5.1c0.9-24.1,0.9-42.8,1.3-56.7H16.5z"/>
	<path class="st2" d="M28.7,0c-0.7,15.3-5,48.5-5.2,56.7H35c-0.8-7.2-2.1-17.6-1.1-56.7H28.7z"/>
	<path class="st0" d="M37,0c0,17.1-1,35.8-0.9,56.7H39c0-19.5,0-38.2,0-56.7H37z"/>
	<path class="st1" d="M43.3,0c-0.7,15.8-1.8,40.4-3.2,56.7h4.1c0.4-9.1,0.3-37.7,1-56.7H43.3z"/>
	<path class="st1" d="M48.4,56.7H72C62,30.9,61.3,27.9,55.5,0h-8.3C47.9,0.6,49.5,40.3,48.4,56.7"/>
</g>
<path class="st1" d="M71.5,3.1c-0.4,0.4-0.8,0.5-1.3,0.5s-0.9-0.1-1.3-0.5s-0.5-0.8-0.5-1.3s0.2-0.9,0.6-1.3S69.7,0,70.2,0
	c0.5,0,0.9,0.1,1.3,0.5S72,1.3,72,1.8C72,2.3,71.8,2.7,71.5,3.1z M69.2,0.7c-0.3,0.3-0.4,0.6-0.4,1.1s0.1,0.8,0.4,1.1
	c0.3,0.3,0.6,0.4,1.1,0.4c0.4,0,0.8-0.1,1.1-0.4c0.3-0.3,0.4-0.6,0.4-1.1s-0.1-0.7-0.4-1.1c-0.3-0.3-0.6-0.4-1.1-0.4
	C69.8,0.3,69.4,0.4,69.2,0.7z M69.4,2.7v-2c0.1,0,0.3,0,0.6,0c0.3,0,0.4,0,0.4,0c0.1,0,0.3,0.1,0.4,0.1c0.1,0.1,0.3,0.3,0.3,0.5
	c0,0.1-0.1,0.3-0.1,0.4c-0.1,0.1-0.2,0.1-0.4,0.1c0.1,0,0.2,0.1,0.3,0.1C71,2.1,71,2.2,71,2.4v0.1v0.1v0.1v0.1h-0.5
	c0-0.1,0-0.1,0-0.3s0-0.2,0-0.2c0-0.1-0.1-0.1-0.1-0.1c-0.1,0-0.1,0-0.1,0h-0.1H70v0.7L69.4,2.7L69.4,2.7z M70.4,1.1
	c-0.1,0-0.1-0.1-0.3-0.1H70v0.6h0.2c0.1,0,0.2,0,0.3-0.1c0.1-0.1,0.1-0.1,0.1-0.2C70.5,1.3,70.5,1.2,70.4,1.1z"/>
</svg>
