<?xml version="1.0" encoding="UTF-8" standalone="no"?>
<!-- Created with Inkscape (http://www.inkscape.org/) -->

<svg
   xmlns:dc="http://purl.org/dc/elements/1.1/"
   xmlns:cc="http://creativecommons.org/ns#"
   xmlns:rdf="http://www.w3.org/1999/02/22-rdf-syntax-ns#"
   xmlns:svg="http://www.w3.org/2000/svg"
   xmlns="http://www.w3.org/2000/svg"
   xmlns:sodipodi="http://sodipodi.sourceforge.net/DTD/sodipodi-0.dtd"
   xmlns:inkscape="http://www.inkscape.org/namespaces/inkscape"
   width="161.76947"
   height="49.091942"
   viewBox="0 0 42.801505 12.988909"
   version="1.1"
   id="svg2721"
   inkscape:version="0.92.0 r15299"
   sodipodi:docname="radisson blu.svg">
  <defs
     id="defs2715">
    <clipPath
       id="clipPath1418"
       clipPathUnits="userSpaceOnUse">
      <path
         inkscape:connector-curvature="0"
         id="path1416"
         d="M 0,0 H 612 V 792 H 0 Z" />
    </clipPath>
  </defs>
  <sodipodi:namedview
     id="base"
     pagecolor="#ffffff"
     bordercolor="#666666"
     borderopacity="1.0"
     inkscape:pageopacity="0.0"
     inkscape:pageshadow="2"
     inkscape:zoom="5.5793581"
     inkscape:cx="80.385447"
     inkscape:cy="24.045507"
     inkscape:document-units="mm"
     inkscape:current-layer="layer1"
     showgrid="false"
     fit-margin-top="0"
     fit-margin-left="0"
     fit-margin-right="0"
     fit-margin-bottom="0"
     units="px"
     inkscape:window-width="1280"
     inkscape:window-height="744"
     inkscape:window-x="-4"
     inkscape:window-y="-4"
     inkscape:window-maximized="1" />
  <metadata
     id="metadata2718">
    <rdf:RDF>
      <cc:Work
         rdf:about="">
        <dc:format>image/svg+xml</dc:format>
        <dc:type
           rdf:resource="http://purl.org/dc/dcmitype/StillImage" />
        <dc:title></dc:title>
      </cc:Work>
    </rdf:RDF>
  </metadata>
  <g
     inkscape:label="Layer 1"
     inkscape:groupmode="layer"
     id="layer1"
     transform="translate(-72.469446,-144.47432)">
    <g
       id="g2796"
       transform="translate(0.13229089,-0.13228841)">
      <path
         d="m 77.267605,155.72115 c 0.05609,-0.0684 0.109008,-0.17321 0.394758,-0.24271 0,0 9.69892,-3.29424 22.602117,-2.6356 0,0 0.73237,-0.0268 0.53376,0.29351 -0.11677,0.18803 -0.33444,0.20002 -0.74825,0.22119 0,0 -0.140402,0.0219 -0.689324,0.0159 0,0 1.319744,0.51224 -3.889023,0.4057 0,0 0.460023,0.46919 -1.455561,0.33408 0,0 -5.341761,-0.24342 -16.137819,1.71379 0,0 -0.849136,0.18345 -0.610658,-0.10583"
         style="fill:#00009c;fill-opacity:1;fill-rule:nonzero;stroke:none;stroke-width:0.35277778"
         id="path1422"
         inkscape:connector-curvature="0" />
      <path
         d="m 88.223295,145.06483 c 0,0 -0.642408,-0.80998 -0.533753,0.12382 0,0 0.08749,1.94804 -0.233891,4.37233 -0.03634,-0.0942 -0.08608,-0.1905 -0.154164,-0.28539 0,0 -0.559859,-0.74648 -1.187803,-0.5394 0,0 -0.801158,0.25223 -1.265061,1.4612 0,0 -0.327378,0.83573 -0.234245,1.46509 0,0 -0.03104,1.65312 1.9812,0.48507 0,0 0.213078,-0.12947 0.462492,-0.38276 -0.04833,0.20637 -0.127,0.34148 -0.134761,0.55386 0,0 -0.07197,0.43638 0.127705,0.5461 0.0762,0.042 0.158045,-0.0159 0.335492,-0.44027 0,0 1.430514,-3.6703 1.507067,-5.18548 0,0 0.502708,-0.75212 -0.670278,-2.17417 m -2.494492,6.60541 c 0,0 -0.148166,-0.0984 -0.138641,-0.54187 0,0 0.04127,-0.77046 0.564797,-1.38747 0,0 0.145697,-0.1845 0.264583,-0.20743 0.03951,-0.007 0.103717,0.0508 0.134056,0.2861 0.0071,0.0579 -0.159103,0.0699 -0.09878,0.254 0,0 0.278694,0.7045 0.865364,0.387 -0.02469,0.14428 -0.0508,0.28998 -0.07867,0.43638 -0.305505,0.42404 -0.948266,1.15747 -1.512711,0.77329 m 7.436203,-2.98027 c 0,0 1.163108,1.23861 1.115131,2.09692 0,0 -0.158398,1.19415 -2.134306,1.15323 0,0 -0.48895,-0.0727 -0.0088,-0.3863 0,0 1.284816,-0.41557 0.443441,-1.95968 0,0 -0.795866,0.93381 -1.322211,1.45063 l 0.0035,0.004 c -1.505656,1.46932 -1.801989,0.92992 -1.801989,0.92992 -0.573264,-0.82056 -0.153458,-2.61549 -0.153458,-2.61549 0.222603,-0.95003 0.714375,-0.61419 0.714375,-0.61419 0.717903,0.11677 0.449086,0.73766 0.449086,0.73766 -0.09102,0.47695 -0.207433,0.42439 -0.207433,0.42439 -0.221898,0.17921 -0.268464,0.96485 -0.268464,0.96485 0.08925,0.43356 -0.296334,1.03611 0.818091,0.0688 0.264936,-0.26529 1.6002,-1.76883 1.812925,-2.36044 0,0 0.22225,-0.57608 0.540103,0.10548 m -1.724378,-1.83338 c -0.02011,0.18591 -0.119591,0.34113 -0.254353,0.42333 -0.193322,0.1457 -0.593019,0.39441 -0.721783,0.36089 -0.130175,-0.0339 0.01693,-0.44626 0.02399,-0.56197 0.0078,-0.13053 0.0074,-0.22613 0.03387,-0.34643 0.04198,-0.28116 0.267052,-0.48472 0.513997,-0.45861 0.254705,0.0272 0.43568,0.28787 0.404283,0.58279 m 8.205258,1.60267 c 0.344664,-0.45579 0.585961,-0.24977 0.585961,-0.24977 0.0328,0.018 0.1016,-0.004 0.13018,-0.006 0.45755,-0.0349 0.0818,0.41487 0.0818,0.41487 -0.38559,0.52423 -0.734833,1.50354 -0.734833,1.50354 -0.08819,0.2219 -0.173214,0.57891 -0.173214,0.57891 -0.139347,0.59443 0.486827,0.17392 0.486827,0.17392 0.0896,-0.0635 0.17181,-0.15381 0.21414,-0.19333 0.0716,-0.0677 0.1337,-0.0755 0.1337,-0.0755 0.13088,-0.0187 -0.0917,-0.69956 -0.0917,-0.69956 -0.0949,-0.26917 -0.0783,-0.28116 -0.0783,-0.28116 -0.061,-0.33055 0.12277,-0.41557 0.12277,-0.41557 0.19579,-0.1196 0.35348,0.19367 0.35348,0.19367 0.17533,0.26635 0.33091,0.96838 0.33091,0.96838 0.14887,0.62194 -0.31715,0.57326 -0.31715,0.57326 -0.19332,0.0381 -0.52387,0.36654 -0.52387,0.36654 -0.514351,0.4258 -1.231901,0.46743 -1.231901,0.46743 -0.711905,0.025 -0.655108,-0.6022 -0.655108,-0.6022 -0.0053,-0.67874 1.366308,-2.71744 1.366308,-2.71744 m -2.865261,0.89429 c 0.328436,0.2293 0.87877,0.73766 0.787753,1.26753 0,0 -0.158397,1.19415 -2.134658,1.15358 0,0 -0.215195,-0.0116 -0.219428,-0.14499 3.53e-4,-0.0984 0.04127,-0.17674 0.210961,-0.24165 0,0 1.28517,-0.41557 0.443442,-1.95968 0,0 -0.317853,0.24588 -0.763764,0.59196 0,0 -0.311503,0.34325 -0.288925,-0.14429 0,0 0.02716,-0.26952 0.142875,-0.37359 0,0 0.716844,-0.42298 0.954264,-1.08373 0.119239,-0.43639 0.758119,-0.80504 0.820208,-0.4378 0.02787,0.16545 -0.162278,0.26917 -0.256117,0.38629 -0.213783,0.26811 0.06068,0.83326 0.303389,0.98637 m -12.737394,2.38442 c 0,0 -0.0035,-0.0229 -0.02399,-0.0416 -0.05327,-0.0367 -0.314325,0.0811 -0.573616,0.23706 -0.04127,0.0247 -0.07867,0.0462 -0.113242,0.0656 -0.09525,0.0589 -0.186972,0.11818 -0.224014,0.14993 0,0 -0.166864,0.133 -0.148519,-0.16581 3.52e-4,-0.004 3.52e-4,-0.008 7.05e-4,-0.012 h -3.53e-4 c 0.0032,-0.0663 0.01587,-0.15064 0.02011,-0.2413 0,0 0.2286,-0.91334 0.32773,-1.16911 0,0 0.05397,-0.24059 0.139348,-0.51505 0,0 0.389466,-0.40534 -0.325967,-0.53658 0,0 -0.342195,-0.84067 -0.710142,0.48366 -3.53e-4,-3.5e-4 -3.53e-4,-3.5e-4 -3.53e-4,-3.5e-4 -0.02575,-0.13653 -0.150283,-0.34608 -0.3429,-0.42898 -0.03845,-0.0222 -0.09278,-0.0384 -0.168627,-0.0448 -0.02858,-0.003 -0.04762,0.005 -0.110773,-0.004 0,0 -0.342547,-0.11818 -0.710141,0.34114 -0.390525,0.43003 -1.53035,1.79634 -1.270353,2.94075 0,0 0.140758,0.59232 0.667456,0.58914 0,0 0.69603,0.008 1.222375,-0.49106 0,0 0.157691,-0.139 0.326672,-0.34573 0.0063,0.0702 0.01764,0.14782 0.03775,0.22402 0.0032,0.0152 0.0067,0.0296 0.01058,0.0441 0,0 0.01976,0.133 0.128411,0.23284 0.07973,0.0741 0.208492,0.13017 0.413809,0.1023 0.02046,-0.004 0.04198,-0.01 0.06421,-0.0162 0,0 0.7366,-0.17816 0.718609,-0.49107 -0.0092,-0.15487 0.04692,-0.18592 0.04692,-0.18592 0,0 0.04692,-0.0257 0.03034,-0.0801 0,0 0.587728,-0.39299 0.567972,-0.64135 m -2.124075,0.43533 c -0.06068,0.0977 -0.118886,0.20779 -0.275872,0.30833 0,0 -0.806097,0.49354 -0.777875,-0.20355 0,0 0.02681,-0.38594 0.159808,-0.74507 0,0 0.371123,-0.94333 0.946503,-1.49331 0.05292,-0.0533 0.09878,-0.0586 0.128058,-0.0183 0.08043,0.10971 0.09419,0.23495 0.155223,0.33725 0.01588,0.0272 0.03351,0.0554 0.05256,0.0822 -0.06844,0.35384 -0.245534,1.02447 -0.275167,1.53176 -0.02187,0.0699 -0.07232,0.13547 -0.113242,0.20073 m -5.61975,-3.82446 c 0.15487,0.28222 -0.05186,0.73095 -0.05186,0.73095 -0.893586,1.82775 -2.010833,6.14398 -2.234142,7.02416 l 0.0046,-10e-4 c 0,0 -0.0056,0.0138 -0.01411,0.0384 -0.02011,0.079 -0.03069,0.12171 -0.03069,0.12171 -0.01482,0.0653 -0.03034,0.12312 -0.04586,0.1778 -0.02469,0.13547 -0.04339,0.30551 -0.03916,0.50024 l -0.0028,-0.001 c 0.0074,0.23354 -0.0028,0.47308 -0.07302,0.50553 -0.201083,0.0917 -0.3048,-0.17709 -0.360186,-0.4699 -0.19685,-0.0459 -0.358775,-0.30092 -0.358775,-0.30092 -0.724253,-0.48542 -0.182739,-1.83444 -0.182739,-1.83444 0.492125,-1.95368 2.930525,-6.07378 2.930525,-6.07378 0.28575,-0.46072 0.404283,-0.5154 0.458258,-0.41733 m 3.705225,6.90703 c 0.386645,0.5394 0.682625,0.92005 0.601486,0.99096 -0.263172,0.22895 -1.447094,-0.69603 -1.447094,-0.69603 -2.059517,-1.7078 -2.969683,-3.88479 -3.169003,-4.41325 -0.02928,-0.0773 0.02893,-0.14641 0.02893,-0.14641 0.07056,-0.078 0.182386,-0.12135 0.481189,-0.15522 -0.0011,0 0.0011,3.5e-4 0,0 -0.156633,-0.0751 -0.20567,-0.0949 -0.191911,-0.14711 0.02999,-0.0854 0.318558,-0.0829 0.318558,-0.0829 0.227542,-0.0106 0.392995,-0.0247 0.392995,-0.0247 0.333727,-0.0356 0.503413,-0.0663 0.503413,-0.0663 0.710495,-0.11359 0.989189,-0.42262 0.989189,-0.42262 0.702734,-0.71226 -0.426155,-1.42593 -0.426155,-1.42593 -2.862439,-1.64465 -5.167136,-0.86501 -5.167136,-0.86501 -0.124884,0.036 -0.220839,0.0367 -0.35807,-0.008 -0.300214,-0.10019 0.233539,-0.52528 0.233539,-0.52528 1.419578,-1.17581 2.164292,-0.82374 2.164292,-0.82374 2.757664,0.18309 3.971219,1.6249 3.971219,1.6249 0.960967,1.01705 0.711906,1.82774 0.582789,2.06339 -0.470253,0.86007 -1.584325,0.88159 -1.584325,0.88159 -0.173567,0.01 -0.325614,0.0145 -0.460022,0.0148 0.128058,0.14605 0.221897,0.40076 0.221897,0.40076 0.213783,0.67098 2.314222,3.82622 2.314222,3.82622 m 25.82686,-3.94582 c 0,0 1.51024,1.24496 -0.36371,1.18181 0,0 -0.36407,0.0275 -0.58773,-0.72249 0,0 -0.64382,-1.47108 -0.5969,-2.02706 -0.0635,0.0709 -0.42016,0.50094 -0.62406,0.97578 -0.11818,0.27446 -0.16616,0.37007 -0.33514,0.63253 -0.0928,0.13194 -0.18133,0.25048 -0.26423,0.32703 -0.82727,0.76694 -0.9077,-0.21273 -0.9077,-0.21273 -0.1711,-0.83502 0.25788,-2.17522 0.25788,-2.17522 0.31115,-0.92499 0.76906,-0.54434 0.76906,-0.54434 0.63394,0.16545 0.37747,0.77682 0.37747,0.77682 -0.13547,0.46637 -0.25718,0.36512 -0.25718,0.36512 -0.15663,0.10372 -0.19932,0.32703 -0.21025,0.46814 0,0 -0.0593,0.51752 0.17215,0.121 0.17428,-0.35419 0.51153,-0.94403 0.75706,-1.13206 0,0 0.36125,-0.38488 0.57256,-0.0677 0,0 0.91087,1.83021 1.24072,2.03341"
         style="fill:#000000;fill-opacity:1;fill-rule:nonzero;stroke:none;stroke-width:0.35277778"
         id="path1426"
         inkscape:connector-curvature="0" />
      <path
         d="m 101.67499,152.91921 c 0.39441,0.0243 0.83785,0.0296 1.45274,0.0893 0.31891,0.0307 0.81174,0.0307 0.88159,0.23813 0.0639,0.19014 -0.17639,0.38523 -0.60572,0.46849 -0.21766,0.0423 -0.35489,0.078 -0.55139,0.0713 -0.23213,-0.008 -0.72884,0.01 -0.74295,-0.25788 -0.0109,-0.16722 -0.33549,-0.16581 -0.55245,-0.17463 -0.43392,-0.0169 -0.38947,-0.1397 -0.29492,-0.28751 0.0564,-0.0907 0.17498,-0.14923 0.4131,-0.14711"
         style="fill:#00009c;fill-opacity:1;fill-rule:nonzero;stroke:none;stroke-width:0.35277778"
         id="path1430"
         inkscape:connector-curvature="0" />
      <path
         d="m 115.00537,146.35172 c 0,-0.12559 -0.10266,-0.22825 -0.22825,-0.22825 l -7.15433,0.001 c -0.12559,0 -0.22825,0.10266 -0.22825,0.22825 l 10e-4,7.15433 c 0,0.12559 0.10266,0.22825 0.22825,0.22825 l 7.15433,-0.001 c 0.12559,0 0.22825,-0.10266 0.22825,-0.22825 z"
         style="fill:#00009c;fill-opacity:1;fill-rule:nonzero;stroke:none;stroke-width:0.35277778"
         id="path1434"
         inkscape:connector-curvature="0" />
      <path
         d="m 113.98126,150.98038 c -0.11395,-0.27023 -0.1457,-0.61595 -0.16475,-0.89782 -0.26917,0.59725 -0.67169,1.518 -1.12783,1.44709 -0.27234,-0.0423 -0.29174,-0.51435 -0.22754,-0.97084 -0.18027,0.38806 -0.35242,0.79022 -0.56056,1.03293 0,0 -0.0152,0.0201 -0.0483,0.0582 -0.0512,0.0617 -0.1771,0.20109 -0.29316,0.23001 -0.008,0.002 -0.0222,0.005 -0.0356,0.006 -0.0349,0.005 -0.0716,0.003 -0.11042,-0.006 -0.0917,-0.0293 -0.1771,-0.11994 -0.25189,-0.29174 -0.0138,-0.031 -0.0247,-0.0635 -0.0342,-0.0963 -0.01,-0.0459 -0.0176,-0.0907 -0.0229,-0.13406 -0.079,0.13124 -0.17145,0.25189 -0.27305,0.35102 -0.33161,0.3249 -0.68968,0.52458 -1.1123,0.64487 -0.38171,0.10866 -0.84949,0.19932 -1.22661,0.0131 -0.38206,-0.18874 -0.44909,-0.63289 -0.2794,-1.00895 0.0628,-0.13935 0.10125,-0.0564 0.0759,0.10407 -0.009,0.0589 -0.0187,0.11536 -0.0208,0.17498 -0.0307,0.96696 1.46756,0.50694 1.87995,0.26882 0.30657,-0.17675 0.42828,-0.30939 0.57856,-0.46144 0.2032,-0.20567 0.34854,-0.56021 0.38382,-0.86219 0.0847,-0.72354 -0.81668,-0.71825 -1.24142,-0.70026 -0.0145,7.1e-4 -0.0279,-0.002 -0.0402,-0.006 -0.0483,0.13123 -0.0991,0.26176 -0.15169,0.39087 -0.10266,0.25224 -0.1965,0.46391 -0.29704,0.71649 -0.0847,0.21132 -0.21767,0.48402 -0.34643,0.66464 -0.078,0.10936 -0.13935,0.0727 -0.1337,-0.0568 0.01,-0.2286 0.13264,-0.48048 0.21766,-0.68509 0.097,-0.23319 0.19791,-0.46426 0.29563,-0.69709 0.19297,-0.45967 0.37959,-0.92781 0.49036,-1.42205 0.0328,-0.14499 0.23389,-0.12241 0.21061,0.0325 -0.0268,0.17603 -0.0653,0.34889 -0.11183,0.51893 0.13687,-0.18662 0.27693,-0.37041 0.39476,-0.57397 0.11818,-0.20461 0.37641,-0.75635 0.0554,-0.92427 -0.26247,-0.13724 -0.61665,0.0836 -0.8188,0.24659 -0.2233,0.17956 -0.47095,0.41345 -0.6551,0.70908 -0.0868,0.10689 -0.14253,0.0452 -0.10019,-0.0399 0.16404,-0.32985 0.46919,-0.65088 0.74577,-0.85866 0.25788,-0.19368 0.67345,-0.45297 0.98072,-0.23425 0.34925,0.24871 0.21555,0.76518 0.049,1.0922 -0.15946,0.31221 -0.36689,0.58067 -0.56127,0.86254 0.41557,-0.002 0.9204,0.0561 1.15429,0.44415 0.025,0.0413 0.0459,0.084 0.0631,0.12771 0.10337,-0.2787 0.21626,-0.51083 0.2981,-0.69074 0.3108,-0.68263 0.47449,-0.9779 0.87842,-1.56704 0.0561,-0.0819 0.1404,0.0102 0.0917,0.0956 -0.56797,0.99166 -0.94086,1.75048 -1.1744,2.68146 -0.019,0.0776 -0.0349,0.15417 -0.0409,0.19721 3.5e-4,3.5e-4 -0.002,0.007 -0.001,0.007 -0.0229,0.17074 -0.0342,0.40428 0.0423,0.5468 0.0159,0.0296 0.0335,0.0501 0.0515,0.0646 7e-4,0 0.001,0.001 0.001,7e-4 0.10054,0.0759 0.22648,-0.0603 0.29069,-0.1471 0.16615,-0.2085 0.31115,-0.44521 0.43744,-0.69956 0.20743,-0.41699 0.42298,-0.86325 0.55598,-1.33597 0.0413,-0.14746 0.21696,-0.11607 0.20884,0.0536 -0.013,0.2727 -0.0868,0.53481 -0.13793,0.79693 -0.0353,0.18132 -0.26282,1.27035 0.0928,0.93239 0.38911,-0.36971 0.64241,-0.96062 0.89923,-1.48767 0.0466,-0.0952 0.17321,-0.0783 0.18873,0.0459 0.049,0.40323 0.055,0.77541 0.18309,1.15888 0.0586,0.17427 -0.12241,0.30621 -0.19367,0.13723"
         style="fill:#5959bd;fill-opacity:1;fill-rule:nonzero;stroke:none;stroke-width:0.35277778"
         id="path1438"
         inkscape:connector-curvature="0" />
      <path
         d="m 109.82345,150.10726 c 0.091,-0.054 0.14605,-0.14041 0.14605,-0.25647 v -0.14287 c 0,-0.1577 -0.0642,-0.42193 -0.49354,-0.42193 h -1.47637 v 1.7713 h 1.4993 c 0.32527,0 0.53517,-0.1591 0.53517,-0.40534 v -0.19862 c 0,-0.17709 -0.0713,-0.2921 -0.21061,-0.34607 m -0.18133,-0.25859 c 0,0.072 -0.0226,0.15487 -0.19861,0.15487 h -1.1169 v -0.43215 h 1.12854 c 0.0314,0 0.18697,0.006 0.18697,0.12488 z m -1.31551,0.44027 h 1.1102 c 0.21448,0 0.27022,0.0392 0.27022,0.18979 v 0.11995 c 0,0.10689 -0.0395,0.17321 -0.23565,0.17321 h -1.14477 z m 2.42394,0.48295 h 1.29681 v 0.2854 h -1.62419 v -1.7713 h 0.32738 z m 3.64243,-1.4859 v 1.30105 c 0,0.4071 -0.2473,0.48895 -0.64594,0.48895 h -0.77082 c -0.39828,0 -0.64523,-0.0819 -0.64523,-0.48895 v -1.30105 h 0.32703 v 1.29858 c 0,0.12453 0.0215,0.20602 0.3115,0.20602 h 0.78458 c 0.28998,0 0.31186,-0.0815 0.31186,-0.20602 v -1.29858 z"
         style="fill:#ffffff;fill-opacity:1;fill-rule:nonzero;stroke:none;stroke-width:0.35277778"
         id="path1442"
         inkscape:connector-curvature="0" />
    </g>
  </g>
</svg>
