<svg id="Layer_1" data-name="Layer 1" xmlns="http://www.w3.org/2000/svg" viewBox="0 0 628.4 111.52"><defs><style>.cls-1{fill:#ff9015;}.cls-2{fill:#ff6c0e;}</style></defs><title>Logo</title><path class="cls-1" d="M572.24,82.42c-.71.39-1.43.79-2.16,1.21l2-1,.15-.17" transform="translate(-42.96 -70.86)"/><path class="cls-2" d="M616.5,70.86s-14.33.44-27.12,4.81a111.1,111.1,0,0,1,27-4.68l.09-.13" transform="translate(-42.96 -70.86)"/><path class="cls-2" d="M628.47,71.06A109.81,109.81,0,0,1,648.13,74c-12.18-3.41-19.3-3-19.66-2.94" transform="translate(-42.96 -70.86)"/><path class="cls-1" d="M533.06,117.87c-6.47,12.12-7.61,23.08-6.23,32.18a111.94,111.94,0,0,1,27.57-29.7,95.74,95.74,0,0,1,17.69-37.76l-2,1c-12.26,7-28.18,17.69-37,34.24" transform="translate(-42.96 -70.86)"/><path class="cls-1" d="M641.61,93.17a63.83,63.83,0,0,1-.41,7.17,110.44,110.44,0,0,1,29.89,10.19c.13-1.18.22-2.33.26-3.43a33,33,0,0,0-22.53-32.91l-.69-.19a109.81,109.81,0,0,0-19.66-2.94h0s13.12,1.76,13.16,22.11" transform="translate(-42.96 -70.86)"/><path class="cls-1" d="M569.78,110.75a110,110,0,0,1,32-10.71C608,82.26,615.47,72.2,616.41,71a110.94,110.94,0,0,0-27,4.68l-1.09.38s-12.12,13-18.52,34.7" transform="translate(-42.96 -70.86)"/><path class="cls-1" d="M539.53,175.26a26.35,26.35,0,0,0,6.24,4.14,97.86,97.86,0,0,1,11.36-19.2c-2.66-5.13-4.54-11.89-4.68-20.78a82.36,82.36,0,0,1,.3-8.24,111.79,111.79,0,0,0-24.2,26.13c2.82,8.72,7.69,15,11,17.95" transform="translate(-42.96 -70.86)"/><path class="cls-1" d="M595.56,124.63c.87-5.26,2-10.17,3.17-14.7a110,110,0,0,0-31.47,11.65A92.93,92.93,0,0,0,566,141.75a47.08,47.08,0,0,0,.94,7.37,97.26,97.26,0,0,1,27.8-18.89c.22-1.81.49-3.69.8-5.6" transform="translate(-42.96 -70.86)"/><path class="cls-1" d="M635.45,121.74a96.59,96.59,0,0,1,31.26,5.44,78.75,78.75,0,0,0,2.79-8.41,110.71,110.71,0,0,0-29.9-9.55,84.65,84.65,0,0,1-4.15,12.52" transform="translate(-42.96 -70.86)"/><path class="cls-2" d="M577.33,176a29.8,29.8,0,0,1-20.2-15.83,97.49,97.49,0,0,0-11.36,19.19c11.61,5.54,26.3,2.73,31.56-3.36" transform="translate(-42.96 -70.86)"/><path class="cls-2" d="M603.58,155.28c-9.19-1.38-10.43-11.77-8.83-25.05A97.49,97.49,0,0,0,567,149.12c4,19.11,19.42,29.21,30.59,29.86,34,2,59.23-26.63,69.16-51.8a96.86,96.86,0,0,0-31.26-5.44c-8.28,19.77-23,34.88-31.87,33.54" transform="translate(-42.96 -70.86)"/><path class="cls-2" d="M94.12,98.42s0,0,0,0H94a3.94,3.94,0,0,0-3.63,2.42.29.29,0,0,0-.06.1l-9.56,20.8-1-23.33H74s0,0,0,0h-1c-2.15,0-2.94,1.42-3.8,3l-14,23.87,3.42-26.85-6.92,0h-1c-2.5,0-3.71,1.07-3.89,3.15a2.83,2.83,0,0,0,0,.29L43,140.76H58l11.81-23.23,1.25,23.23H84.53l18.7-42.35Z" transform="translate(-42.96 -70.86)"/><path class="cls-1" d="M498.41,105.67H485.33l-15.08,15.07,2.68-15.22a7.11,7.11,0,0,0-2.3-5.3,5.75,5.75,0,0,0-3.67-1.6l-6.68.06L452.84,141l13.85,0,3-16.93,7.54,17h16.12l-9.6-19.78Z" transform="translate(-42.96 -70.86)"/><path class="cls-2" d="M117.05,113c4,0,3.94,3,3.86,5.24,0,.12,0,.24,0,.36s0,.23,0,.35l-10.2.43h-.92c1.67-4.24,4.12-6.39,7.31-6.39m-6.17,20.5c-3.53,0-4.72-2.3-3.94-6.53,0-.19,0-.33.09-.52l23.3-.44a33.72,33.72,0,0,0,2-9.18c.16-6.51-4.8-11.58-13-11.19-11.15.52-19.34,6.54-23,18.42C92.88,135.09,97.09,141,108.5,141c8.28,0,14.92-3.17,18.51-8.71a3.18,3.18,0,0,0,.27-.37,16.26,16.26,0,0,0,.88-1.65l.77-1.51H117.27c-1.16,2.8-3.45,4.74-6.39,4.74" transform="translate(-42.96 -70.86)"/><path class="cls-2" d="M237.58,117.47a16.93,16.93,0,0,1-.85,4.47c-1.23,4-3.63,8.74-8.12,8.74-2.88,0-3.76-1.84-3.72-4.18a16.64,16.64,0,0,1,.82-4.43c1.67-5.48,4.8-8.75,8.36-8.75,2.74,0,3.58,1.83,3.51,4.15m7.78-11.85a4.25,4.25,0,0,0-3.75,3.44l-.46,1.78c-.85-2.36-2.76-5.17-8.88-5.17-10.75,0-17.2,8.54-19.65,16.52-3.75,12.2,2.71,16.53,9.37,16.53a14.53,14.53,0,0,0,9.39-3.45c.16-.13.33-.25.49-.39a19,19,0,0,0,1.49-1.29l-1.16,3.73c-1.14,3.77-2.73,7.46-8.16,7.46-3,0-4.29-1-3.91-3.8H209a9.72,9.72,0,0,0,1.17,7.41c2.46,4.07,7.77,5.57,12.45,5.74,5.83.21,9.65-1.09,14.41-4.74,5.77-4.42,8-14,8-14l8.86-29.77Z" transform="translate(-42.96 -70.86)"/><path class="cls-2" d="M159.11,117.47a16.93,16.93,0,0,1-.85,4.47c-1.23,4-3.62,8.74-8.11,8.74-2.88,0-3.77-1.84-3.73-4.18a16.64,16.64,0,0,1,.82-4.43c1.67-5.48,4.8-8.75,8.36-8.75,2.74,0,3.58,1.83,3.51,4.15m7.79-11.85a4.26,4.26,0,0,0-3.76,3.44l-.46,1.78c-.84-2.36-2.76-5.17-8.88-5.17-10.75,0-17.2,8.54-19.64,16.52-3.76,12.2,2.7,16.53,9.37,16.53a14.51,14.51,0,0,0,9.38-3.45c.16-.13.33-.25.49-.39a16,16,0,0,0,1.49-1.29l-1.16,3.73c-1.14,3.77-2.73,7.46-8.16,7.46-3,0-4.29-1-3.9-3.8H130.49a9.77,9.77,0,0,0,1.17,7.41c2.47,4.07,7.77,5.57,12.45,5.74,5.83.21,9.66-1.09,14.41-4.74,5.78-4.42,8-14,8-14l8.87-29.77Z" transform="translate(-42.96 -70.86)"/><path class="cls-1" d="M395.56,130.43a6.24,6.24,0,0,1-5.16,2.87c-2.35,0-3.37-1.33-3.42-2.9a4.14,4.14,0,0,1,.1-1.1c.92-4.2,5.58-4.32,10.57-4.39h0a14.44,14.44,0,0,1-2.1,5.52m15-20.94c-2.84-3.4-9-3.9-12.46-3.9-6.27,0-11.94,1.58-15.16,4.23a10.7,10.7,0,0,0-3.79,7.19l12.59-.42a5.64,5.64,0,0,1,1.73-3.1,5,5,0,0,1,3.15-1,3.37,3.37,0,0,1,2.49.9c1.94,2,.43,5,.43,5-1.06,0-2.1-.07-3.11-.07-13.63,0-21.11,4-22.87,12.11-1.45,6.74,2.2,10.61,10,10.61,4.25,0,7.61-1.18,10-3.56.17-.14.31-.28.46-.43.5-.43,1.29-1.26,1.29-1.26L394.26,141H408l3.77-22.58c.85-4,.43-7-1.18-8.92" transform="translate(-42.96 -70.86)"/><path class="cls-2" d="M193.77,130.43a6.26,6.26,0,0,1-5.16,2.87c-2.35,0-3.36-1.33-3.42-2.9a4.62,4.62,0,0,1,.11-1.1c.91-4.2,5.58-4.33,10.57-4.39h0a14.31,14.31,0,0,1-2.11,5.52m15-20.94c-2.83-3.4-9-3.9-12.46-3.9-6.26,0-11.93,1.58-15.16,4.24a10.6,10.6,0,0,0-3.78,7.18l12.59-.42a5.58,5.58,0,0,1,1.73-3.1,5,5,0,0,1,3.15-1,3.37,3.37,0,0,1,2.49.9c1.94,2,.43,5,.43,5-1.06-.05-2.1-.07-3.12-.07-13.62,0-21.1,4-22.86,12.11-1.45,6.74,2.2,10.61,10,10.61,4.26,0,7.61-1.18,10-3.56.17-.14.3-.28.46-.43.5-.43,1.29-1.26,1.29-1.26L192.47,141h13L210,118.41c.85-4,.44-7-1.18-8.92" transform="translate(-42.96 -70.86)"/><path class="cls-2" d="M316.71,105.59c-3.78,0-6.87.38-10.52,4l-2.33,2.56.32-1.74a4.14,4.14,0,0,0,.09-.87,4,4,0,0,0-3.64-3.95h-8.49L285.87,141l.07,0,12.8,0,3.48-19.67c.74-4.29,3.19-6.53,6.71-6.8,5.34-.42,4.14,4.29,3.63,6.8L309.06,141h13.83l3.56-20.47c1-4.73,3.16-14.86-9.74-14.94" transform="translate(-42.96 -70.86)"/><path class="cls-1" d="M363,111.29a5.72,5.72,0,0,1-2.89,3.62,9.41,9.41,0,0,1-3.92.46l-5.33,0,.61,0,1.59-8.22,6.18,0a4.24,4.24,0,0,1,3.21.88,3.37,3.37,0,0,1,.55,3.3m-3,16.82c-1.15,4.43-5.74,4.11-7.1,4.11l-4.37-.15,1.5-8.65h4.81c1.73,0,6.37.1,5.16,4.69m5.92-8.81-.43-.1c5.59-1.58,7.91-4.82,9.15-9.55a8.73,8.73,0,0,0-1.62-7.89c-3-3.54-7.07-3.16-12.34-3.16H343.31l-7.95,42.31,15.9.13c3.77,0,8,0,11.88-1.78a14.91,14.91,0,0,0,8.58-9.85c.74-2.84.55-5.18-.57-6.94a7.61,7.61,0,0,0-5.28-3.17" transform="translate(-42.96 -70.86)"/><path class="cls-2" d="M271.55,113.05c4,0,3.95,3,3.87,5.25,0,.12,0,.24,0,.35s0,.24,0,.35l-10.2.43h-.93c1.67-4.24,4.12-6.39,7.31-6.39m-10,13.45,23.3-.43a34.35,34.35,0,0,0,2-9.18c.15-6.52-4.8-11.59-13-11.2-11.15.53-19.33,6.54-23,18.43-3.43,11.07.78,16.93,12.19,16.93,8.28,0,14.92-3.17,18.51-8.71a2.51,2.51,0,0,0,.27-.37,14.48,14.48,0,0,0,.88-1.65l.77-1.5H271.77c-1.16,2.79-3.44,4.74-6.39,4.74-3.53,0-4.72-2.31-3.94-6.54,0-.18,0-.33.09-.52" transform="translate(-42.96 -70.86)"/><path class="cls-1" d="M442.22,105.8c-3.78,0-6.87.38-10.51,4-1.34,1.47-3.28,3.61-2.34,2.55l.32-1.74a4.12,4.12,0,0,0,.1-.86,4,4,0,0,0-3.65-4l-.07,0h-8.41l-6.28,35.41.08,0,12.8,0,3.47-19.67c.74-4.29,3.19-6.53,6.71-6.8,5.34-.41,4.14,4.29,3.63,6.8l-3.5,19.66H448.4L452,120.74c1-4.72,3.16-14.86-9.74-14.94" transform="translate(-42.96 -70.86)"/><path class="cls-1" d="M501.83,102.89h.44c.51,0,.93-.17.93-.59s-.27-.61-.86-.61a2.51,2.51,0,0,0-.51,0Zm0,2.27h-.92v-4a8.23,8.23,0,0,1,1.54-.13,2.52,2.52,0,0,1,1.39.3,1.11,1.11,0,0,1,.39.88,1,1,0,0,1-.83.92v.05a1.18,1.18,0,0,1,.73,1,3.28,3.28,0,0,0,.29,1h-1a3.77,3.77,0,0,1-.32-1c-.07-.44-.31-.63-.83-.63h-.44Zm-2.46-2.1a3.1,3.1,0,0,0,3.12,3.2,3.06,3.06,0,0,0,3.05-3.17,3.09,3.09,0,1,0-6.17,0m7.2,0a4,4,0,0,1-4.1,4,4,4,0,1,1,0-8,4,4,0,0,1,4.1,4" transform="translate(-42.96 -70.86)"/></svg>